<svg xmlns="http://www.w3.org/2000/svg" viewBox="0 0 1200 675"><rect width="1200" height="675" rx="28" fill="#07110f"/><rect x="40" y="40" width="1120" height="595" rx="22" fill="#0d1b18"/><text x="72" y="92" fill="#eef8f4" font-family="Arial" font-size="28" font-weight="700">HOSPITAL COMMAND DASHBOARD</text><text x="930" y="92" fill="#43d69d" font-family="Arial" font-size="18">LIVE • 08:42</text><g font-family="Arial"><rect x="72" y="130" width="250" height="125" rx="16" fill="#10211d"/><text x="96" y="170" fill="#9ab0a8" font-size="18">BED OCCUPANCY</text><text x="96" y="225" fill="#43d69d" font-size="48" font-weight="700">82%</text><rect x="340" y="130" width="250" height="125" rx="16" fill="#10211d"/><text x="364" y="170" fill="#9ab0a8" font-size="18">PATIENTS</text><text x="364" y="225" fill="#eef8f4" font-size="48" font-weight="700">1,284</text><rect x="608" y="130" width="250" height="125" rx="16" fill="#10211d"/><text x="632" y="170" fill="#9ab0a8" font-size="18">QUEUE</text><text x="632" y="225" fill="#eef8f4" font-size="48" font-weight="700">047</text><rect x="876" y="130" width="250" height="125" rx="16" fill="#10211d"/><text x="900" y="170" fill="#9ab0a8" font-size="18">ALERTS</text><text x="900" y="225" fill="#43d69d" font-size="48" font-weight="700">03</text></g><rect x="72" y="285" width="1054" height="290" rx="18" fill="#10211d"/><path d="M110 520 L220 475 L330 490 L440 400 L550 435 L660 355 L770 390 L880 320 L1010 345" fill="none" stroke="#43d69d" stroke-width="7"/><text x="100" y="325" fill="#9ab0a8" font-family="Arial" font-size="19">OPERATIONS TREND / 24 HOURS</text></svg>